<svg width="185" height="190" viewBox="0 0 185 190" fill="none" xmlns="http://www.w3.org/2000/svg">
<path d="M38 18L45.7778 29.3333M55.8889 44.2083L73 69M49.6667 35L52 37.8333" stroke="#FFB812" stroke-width="0.8"/>
<path d="M110.394 1L107.526 14.3923M103.694 31.8991L97.4859 61.2655M106.091 21.0885L105.641 24.7195" stroke="#FFB812" stroke-width="0.8"/>
<path d="M180.035 51.366L167.631 57.1734M151.367 64.6997L124.217 77.4993M161.429 60.0771L158.264 61.9124" stroke="#FFB812" stroke-width="0.8"/>
<path d="M184.131 131.662L171.594 126.147M155.223 118.857L127.716 106.843M165.326 123.389L161.861 122.214" stroke="#FFB812" stroke-width="0.8"/>
<path d="M118.035 189L115.185 175.604M111.535 158.058L105.212 128.716M113.761 168.905L112.689 165.407" stroke="#FFB812" stroke-width="0.8"/>
<path d="M43.6424 175.734L50.9004 164.12M60.4651 148.964L76.3034 123.468M54.5294 158.312L56.1895 155.052" stroke="#FFB812" stroke-width="0.8"/>
<path d="M0 99.5731L13.6953 99.7189M31.6144 99.9897L61.6289 100.229M20.543 99.7918L24.1909 99.5106" stroke="#FFB812" stroke-width="0.8"/>
<path d="M64.896 95.6221C65.3888 79.6296 77.7989 67.1312 93.6994 66.6512C110.806 66.1347 125.223 81.0697 124.249 98.2558C123.384 113.506 112.319 125.01 97.1908 126.349C79.8969 127.879 64.3581 113.075 64.896 95.6221Z" fill="#FFB812"/>
<path d="M74.4971 30.657C75.0035 26.3915 79.7341 21 79.7341 21C79.7341 21 82.791 26.9629 84.9711 30.657C88.1077 35.9719 92.2788 37.8123 93.6994 43.8256C94.6451 47.8283 93.6994 54.3605 93.6994 54.3605V61.3837C93.6994 61.3837 88.6457 60.2799 85.4075 61.8227C82.1693 63.3655 77.1156 69.2849 77.1156 69.2849C77.1156 69.2849 74.9271 64.6073 74.4971 61.3837C73.5506 54.2885 80.3671 50.956 79.7341 43.8256C79.2444 38.3087 73.8442 36.1567 74.4971 30.657Z" fill="#FFB812"/>
<path d="M110.283 56.1163C106.73 58.1823 102.428 63.1395 102.428 63.1395C102.428 63.1395 109.759 62.8383 113.338 64.8953C116.917 66.9524 120.757 73.6744 120.757 73.6744C120.757 73.6744 124.496 71.0194 126.867 69.2849C131.002 66.2604 134.707 65.7915 137.341 61.3837C140.172 56.6454 137.246 52.5463 139.087 47.3372C140.672 42.8492 145.197 36.8023 145.197 36.8023C145.197 36.8023 137.114 37.556 132.977 40.314C128.089 43.5728 129.122 49.323 124.249 52.6047C119.577 55.7504 115.15 53.2867 110.283 56.1163Z" fill="#FFB812"/>
<path d="M136.468 81.5756C132.512 80.5318 125.994 81.5756 125.994 81.5756C125.994 81.5756 130.284 87.9963 130.795 92.1105C131.306 96.2246 128.613 102.645 128.613 102.645C128.613 102.645 132.347 102.419 134.723 102.645C140.84 103.227 143.455 108.607 149.561 107.913C156.137 107.165 157.079 99.7602 163.526 98.2558C167.511 97.3261 174 98.2558 174 98.2558C174 98.2558 168.448 91.747 163.526 90.3547C158.235 88.8579 154.902 93.4156 149.561 92.1105C143.198 90.5556 142.802 83.2465 136.468 81.5756Z" fill="#FFB812"/>
<path d="M132.977 114.936C130.285 112.425 124.249 111.424 124.249 111.424C124.249 111.424 121.738 117.461 119.012 120.203C116.285 122.946 110.283 125.471 110.283 125.471C110.283 125.471 111.991 128.084 112.902 129.86C115.97 135.848 112.351 141.965 117.266 146.541C121.879 150.835 128.138 146.018 132.977 150.052C136.623 153.092 139.087 160.587 139.087 160.587C139.087 160.587 142.543 152.595 141.705 147.419C140.718 141.318 134.933 140.109 132.977 134.25C130.589 127.1 138.476 120.065 132.977 114.936Z" fill="#FFB812"/>
<path d="M102.428 136.006C102.438 133.51 100.682 129.86 100.682 129.86C100.682 129.86 94.2984 132.302 90.2081 131.616C86.1177 130.931 79.7341 126.349 79.7341 126.349C79.7341 126.349 80.1272 129.598 79.7341 131.616C78.6676 137.093 71.7379 136.809 70.1329 142.151C68.1959 148.599 73.7532 152.137 74.4971 158.831C75.0651 163.942 74.4971 172 74.4971 172C74.4971 172 81.6368 165.641 84.9711 160.587C88.0907 155.858 87.8868 152.097 91.0809 147.419C94.6285 142.223 102.401 142.309 102.428 136.006Z" fill="#FFB812"/>
<path d="M64.896 128.105C68.6108 126.956 72.7514 121.959 72.7514 121.959C72.7514 121.959 66.0683 118.364 64.0231 114.936C61.9779 111.508 62.2775 104.401 62.2775 104.401C62.2775 104.401 58.602 105.673 56.1676 106.157C50.483 107.287 46.4808 103.488 41.3295 106.157C35.09 109.39 38.1481 117.634 32.6012 121.959C29.3462 124.498 23 126.349 23 126.349C23 126.349 31.3691 130.398 36.9653 129.86C42.5821 129.321 44.4374 124.215 50.0578 123.715C56.0744 123.18 59.1225 129.89 64.896 128.105Z" fill="#FFB812"/>
<path d="M50.0578 90.3547C53.5067 93.8278 61.4046 95.6221 61.4046 95.6221C61.4046 95.6221 60.0412 89.7364 61.4046 85.9651C62.7681 82.1938 68.3873 76.3081 68.3873 76.3081C68.3873 76.3081 64.5257 73.8118 62.2775 71.9186C57.4582 67.8605 57.6816 61.8661 51.8035 59.6279C45.3015 57.1522 41.2636 63.8453 34.3468 63.1395C29.7343 62.6689 23 59.6279 23 59.6279C23 59.6279 25.9267 66.1653 29.1098 69.2849C33.9187 73.9978 40.3636 71.2576 44.8208 76.3081C48.6875 80.6896 45.9416 86.2096 50.0578 90.3547Z" fill="#FFB812"/>
<path d="M64.896 95.6221C65.3888 79.6296 77.7989 67.1312 93.6994 66.6512C110.806 66.1347 125.223 81.0697 124.249 98.2558C123.384 113.506 112.319 125.01 97.1908 126.349C79.8969 127.879 64.3581 113.075 64.896 95.6221Z" stroke="#FFB812"/>
<path d="M74.4971 30.657C75.0035 26.3915 79.7341 21 79.7341 21C79.7341 21 82.791 26.9629 84.9711 30.657C88.1077 35.9719 92.2788 37.8123 93.6994 43.8256C94.6451 47.8283 93.6994 54.3605 93.6994 54.3605V61.3837C93.6994 61.3837 88.6457 60.2799 85.4075 61.8227C82.1693 63.3655 77.1156 69.2849 77.1156 69.2849C77.1156 69.2849 74.9271 64.6073 74.4971 61.3837C73.5506 54.2885 80.3671 50.956 79.7341 43.8256C79.2444 38.3087 73.8442 36.1567 74.4971 30.657Z" stroke="#FFB812"/>
<path d="M110.283 56.1163C106.73 58.1823 102.428 63.1395 102.428 63.1395C102.428 63.1395 109.759 62.8383 113.338 64.8953C116.917 66.9524 120.757 73.6744 120.757 73.6744C120.757 73.6744 124.496 71.0194 126.867 69.2849C131.002 66.2604 134.707 65.7915 137.341 61.3837C140.172 56.6454 137.246 52.5463 139.087 47.3372C140.672 42.8492 145.197 36.8023 145.197 36.8023C145.197 36.8023 137.114 37.556 132.977 40.314C128.089 43.5728 129.122 49.323 124.249 52.6047C119.577 55.7504 115.15 53.2867 110.283 56.1163Z" stroke="#FFB812"/>
<path d="M136.468 81.5756C132.512 80.5318 125.994 81.5756 125.994 81.5756C125.994 81.5756 130.284 87.9963 130.795 92.1105C131.306 96.2246 128.613 102.645 128.613 102.645C128.613 102.645 132.347 102.419 134.723 102.645C140.84 103.227 143.455 108.607 149.561 107.913C156.137 107.165 157.079 99.7602 163.526 98.2558C167.511 97.3261 174 98.2558 174 98.2558C174 98.2558 168.448 91.747 163.526 90.3547C158.235 88.8579 154.902 93.4156 149.561 92.1105C143.198 90.5556 142.802 83.2465 136.468 81.5756Z" stroke="#FFB812"/>
<path d="M132.977 114.936C130.285 112.425 124.249 111.424 124.249 111.424C124.249 111.424 121.738 117.461 119.012 120.203C116.285 122.946 110.283 125.471 110.283 125.471C110.283 125.471 111.991 128.084 112.902 129.86C115.97 135.848 112.351 141.965 117.266 146.541C121.879 150.835 128.138 146.018 132.977 150.052C136.623 153.092 139.087 160.587 139.087 160.587C139.087 160.587 142.543 152.595 141.705 147.419C140.718 141.318 134.933 140.109 132.977 134.25C130.589 127.1 138.476 120.065 132.977 114.936Z" stroke="#FFB812"/>
<path d="M102.428 136.006C102.438 133.51 100.682 129.86 100.682 129.86C100.682 129.86 94.2984 132.302 90.2081 131.616C86.1177 130.931 79.7341 126.349 79.7341 126.349C79.7341 126.349 80.1272 129.598 79.7341 131.616C78.6676 137.093 71.7379 136.809 70.1329 142.151C68.1959 148.599 73.7532 152.137 74.4971 158.831C75.0651 163.942 74.4971 172 74.4971 172C74.4971 172 81.6368 165.641 84.9711 160.587C88.0907 155.858 87.8868 152.097 91.0809 147.419C94.6285 142.223 102.401 142.309 102.428 136.006Z" stroke="#FFB812"/>
<path d="M64.896 128.105C68.6108 126.956 72.7514 121.959 72.7514 121.959C72.7514 121.959 66.0683 118.364 64.0231 114.936C61.9779 111.508 62.2775 104.401 62.2775 104.401C62.2775 104.401 58.602 105.673 56.1676 106.157C50.483 107.287 46.4808 103.488 41.3295 106.157C35.09 109.39 38.1481 117.634 32.6012 121.959C29.3462 124.498 23 126.349 23 126.349C23 126.349 31.3691 130.398 36.9653 129.86C42.5821 129.321 44.4374 124.215 50.0578 123.715C56.0744 123.18 59.1225 129.89 64.896 128.105Z" stroke="#FFB812"/>
<path d="M50.0578 90.3547C53.5067 93.8278 61.4046 95.6221 61.4046 95.6221C61.4046 95.6221 60.0412 89.7364 61.4046 85.9651C62.7681 82.1938 68.3873 76.3081 68.3873 76.3081C68.3873 76.3081 64.5257 73.8118 62.2775 71.9186C57.4582 67.8605 57.6816 61.8661 51.8035 59.6279C45.3015 57.1522 41.2636 63.8453 34.3468 63.1395C29.7343 62.6689 23 59.6279 23 59.6279C23 59.6279 25.9267 66.1653 29.1098 69.2849C33.9187 73.9978 40.3636 71.2576 44.8208 76.3081C48.6875 80.6896 45.9416 86.2096 50.0578 90.3547Z" stroke="#FFB812"/>
</svg>
