<svg width="166" height="76" viewBox="0 0 166 76" fill="none" xmlns="http://www.w3.org/2000/svg">
<path d="M18.3777 46.3976C8.7356 42.6067 0 38.7333 0 31.4811C0 28.1023 2.30752 24.9706 6.5105 22.7455C7.2522 22.3335 7.9939 21.9214 8.81802 21.5918C11.8672 20.3556 15.4933 19.6139 19.3667 19.5315H20.3556C31.5635 19.5315 40.6288 24.8882 40.6288 31.4811C40.6288 38.1565 31.5635 43.5132 20.3556 43.5132C18.1305 43.5132 16.0702 43.3484 14.0923 42.9363C15.5757 43.678 17.224 44.4197 19.1194 45.1614C29.8329 49.3644 40.9584 52.9081 40.6288 62.6326C40.5464 66.1763 38.2389 69.5552 34.2007 71.9451C30.3274 74.335 25.2179 75.5712 19.8611 75.5712C0.65929 75.5712 0 62.7974 0 62.715L4.86227 59.7482C4.86227 59.7482 4.61504 74.5823 19.8611 74.5823C30.5746 74.5823 34.7776 69.2255 34.9424 62.6326C35.1896 53.5674 28.7616 50.5182 18.3777 46.3976ZM39.6399 31.4811C39.6399 25.4651 30.9867 20.5204 20.3556 20.5204C20.1908 20.5204 20.026 20.5204 19.8611 20.6028H19.4491C10.7135 20.8501 5.85121 24.9706 5.85121 31.4811C5.85121 35.6841 7.49943 38.6509 11.0431 41.1233C13.8451 42.0298 16.9767 42.5243 20.3556 42.5243C30.9867 42.5243 39.6399 37.5796 39.6399 31.4811Z" fill="white"/>
<path d="M70.68 44.0901C71.2568 45.1614 72.081 45.9855 73.1523 46.5624L74.9654 47.5513L73.1523 48.5403C72.081 49.1172 71.2568 49.9413 70.68 51.0126L69.691 52.8257L68.7021 51.0126C68.1252 49.9413 67.3011 49.1172 66.2298 48.5403L64.4167 47.5513L66.2298 46.5624C67.3011 45.9855 68.1252 45.1614 68.7021 44.0901L69.691 42.277L70.68 44.0901ZM69.691 19.5315C82.3824 19.5315 96.9692 30.7394 96.9692 47.7162C96.9692 64.9401 82.3824 75.5712 69.691 75.5712C56.9173 75.5712 42.4129 64.9401 42.4129 47.7162C42.4129 30.7394 56.9173 19.5315 69.691 19.5315ZM69.691 74.5823C82.3824 74.5823 91.118 62.9623 91.118 47.7162C91.118 32.4701 82.3824 20.5204 69.691 20.5204C56.9173 20.5204 48.2641 32.4701 48.2641 47.7162C48.2641 62.9623 56.9173 74.5823 69.691 74.5823Z" fill="white"/>
<path d="M136.274 21.3336C136.256 21.324 136.24 21.3157 136.226 21.3084V21.2987H141.716C144.189 21.2987 146.146 23.2639 146.146 25.749V68.6285C146.146 70.419 146.822 71.6184 147.502 72.3699C147.842 72.7448 148.181 73.0073 148.436 73.1765C148.564 73.2612 148.671 73.3226 148.746 73.3631C148.764 73.3726 148.78 73.381 148.794 73.3882V73.3979H143.305C140.834 73.3979 138.874 71.3283 138.874 68.9477V57.1372L138.632 57.0954C135.874 64.8706 132.61 72.1384 124.53 73.7193C118.482 74.8816 112.698 72.8745 108.755 68.6627C104.812 64.4514 102.701 58.0282 104.02 50.3487L104.02 50.3486C104.16 49.5293 104.347 48.5839 104.553 47.5427C105.199 44.2737 106.032 40.06 106.193 35.8352C106.401 30.3792 105.491 24.8587 101.578 21.2987H110.2C112.887 24.082 113.676 28.4623 113.531 33.5925C113.393 38.4644 112.416 43.98 111.458 49.3843C111.403 49.6919 111.349 49.9991 111.295 50.3057C110.179 56.6009 110.787 62.484 113.029 66.6396C114.151 68.7188 115.684 70.3675 117.615 71.415C119.547 72.4628 121.871 72.9049 124.569 72.583C128.389 72.1504 131.912 68.9956 134.502 64.2729C137.095 59.5448 138.768 53.2202 138.874 46.3927V46.3907V26.0682C138.874 24.2777 138.198 23.0782 137.518 22.3268C137.179 21.9519 136.839 21.6893 136.584 21.5201C136.456 21.4355 136.349 21.3741 136.274 21.3336ZM153.351 0.153756C153.335 0.145579 153.32 0.138329 153.307 0.131976V0.125H158.796C161.269 0.125 163.226 2.09014 163.226 4.57523V68.5221C163.226 70.3649 163.902 71.5649 164.584 72.3042C164.924 72.6729 165.264 72.9257 165.519 73.0867C165.647 73.1673 165.754 73.2249 165.83 73.2627C165.843 73.2691 165.855 73.2748 165.865 73.28C165.869 73.2816 165.872 73.2831 165.875 73.2845V73.2915H153.307V73.2845C153.32 73.2782 153.335 73.2709 153.351 73.2627C153.427 73.2249 153.534 73.1673 153.662 73.0867C153.918 72.9257 154.258 72.6729 154.598 72.3042C155.279 71.5649 155.955 70.3649 155.955 68.5221V4.89443C155.955 3.05159 155.279 1.85156 154.598 1.11229C154.258 0.743642 153.918 0.490803 153.662 0.329792C153.534 0.249253 153.427 0.191567 153.351 0.153756Z" fill="white" stroke="#A182E9" stroke-width="0.25"/>
</svg>
